<?xml version="1.0" standalone="no"?>
<!DOCTYPE svg PUBLIC "-//W3C//DTD SVG 20010904//EN"
 "http://www.w3.org/TR/2001/REC-SVG-20010904/DTD/svg10.dtd">
<svg version="1.0" xmlns="http://www.w3.org/2000/svg"
 width="1024.000000pt" height="1024.000000pt" viewBox="0 0 1024.000000 1024.000000"
 preserveAspectRatio="xMidYMid meet">

<g transform="translate(0.000000,1024.000000) scale(0.100000,-0.100000)"
fill="#000000" stroke="none">
<path d="M5285 8636 c-27 -7 -120 -45 -205 -85 -85 -40 -193 -90 -240 -112
l-86 -40 -234 100 c-266 112 -293 121 -370 121 -151 0 -230 -79 -238 -237 -4
-65 -1 -79 29 -145 19 -40 48 -99 66 -131 l32 -58 -53 -23 c-94 -42 -83 -48
-166 85 -136 219 -241 309 -359 309 -109 0 -169 -61 -192 -193 -14 -79 -9
-121 46 -369 19 -84 35 -158 35 -165 0 -12 -63 -43 -200 -99 -46 -19 -95 -44
-107 -56 -37 -34 -57 -100 -50 -166 4 -49 181 -862 223 -1026 8 -32 14 -60 12
-61 -2 -2 -30 3 -63 11 -124 29 -255 13 -335 -40 -88 -58 -127 -215 -78 -315
27 -56 101 -132 157 -160 22 -12 41 -24 41 -27 0 -3 -7 -31 -16 -62 -18 -61
-14 -130 10 -199 10 -28 13 -65 9 -119 -4 -59 -1 -89 10 -116 26 -63 66 -106
122 -132 47 -23 53 -29 59 -65 9 -58 62 -121 131 -156 53 -27 67 -30 154 -30
104 0 173 18 236 60 l35 24 6 -39 c4 -22 21 -67 38 -102 25 -52 40 -68 84 -94
140 -84 314 -27 391 127 17 34 31 69 31 76 0 11 8 13 30 9 17 -3 43 -9 60 -12
32 -6 28 1 65 -141 23 -91 51 -151 86 -184 31 -29 31 -29 19 -80 -10 -39 -16
-50 -29 -46 -9 3 -54 19 -100 36 -102 36 -190 47 -271 33 -193 -34 -317 -168
-328 -353 -8 -135 34 -251 103 -283 36 -17 37 -17 148 22 183 65 318 79 540
58 169 -16 206 -14 250 16 56 40 60 61 62 316 0 131 5 236 11 241 5 5 100 12
211 16 l202 7 5 -24 c12 -58 26 -289 20 -344 -10 -90 9 -155 56 -198 50 -45
97 -52 250 -37 232 22 370 10 530 -44 41 -14 87 -25 104 -25 74 0 128 71 149
194 28 163 -51 315 -197 382 -116 53 -277 57 -421 10 -44 -14 -83 -26 -86 -26
-6 0 -29 109 -29 133 0 3 93 7 208 9 175 3 213 6 243 21 l36 18 52 -32 c64
-40 133 -49 196 -25 68 26 85 63 101 214 8 70 14 135 14 145 0 16 4 15 33 -7
75 -58 196 -84 298 -66 124 22 203 89 230 193 9 39 16 48 44 57 93 31 160 138
153 244 -4 52 0 70 24 121 59 125 28 278 -76 373 -25 23 -57 48 -71 54 -14 6
-25 14 -25 17 0 3 48 33 105 65 58 33 121 76 141 95 121 119 176 435 97 557
-9 14 -14 72 -17 200 -2 150 -6 189 -24 239 -31 89 -208 426 -234 448 -51 41
-101 57 -181 57 -83 0 -92 -3 -389 -143 -94 -44 -98 -45 -98 -24 0 12 9 114
19 227 34 364 35 372 17 432 -16 57 -48 94 -105 123 -60 30 -146 17 -439 -69
-145 -43 -265 -76 -267 -74 -2 1 -53 104 -113 228 -117 240 -155 300 -200 324
-42 22 -120 27 -177 12z m94 -173 c19 -17 201 -371 201 -392 0 -6 -13 -17 -30
-26 -16 -9 -30 -18 -30 -21 0 -2 13 2 30 11 36 18 50 19 50 2 0 -8 -43 -25
-112 -45 -62 -18 -165 -48 -228 -66 -63 -19 -221 -66 -350 -105 -214 -63 -509
-153 -667 -202 -34 -10 -66 -19 -71 -19 -5 0 -17 21 -27 46 -10 26 -42 83 -71
127 -30 44 -54 82 -54 83 0 5 157 84 165 84 4 0 3 -6 0 -12 -4 -7 -1 -6 7 3
22 27 298 150 322 144 13 -4 17 -3 9 2 -16 12 141 97 162 89 8 -3 15 -1 15 5
0 5 66 42 148 80 81 39 174 83 207 99 202 97 256 120 265 115 6 -3 10 -1 10 4
0 17 25 13 49 -6z m-1238 -35 c21 -39 68 -209 56 -205 -6 2 -20 41 -33 88 -12
46 -27 96 -33 112 -13 33 -6 36 10 5z m67 16 c12 -4 22 -11 22 -18 1 -15 43
-55 117 -108 l63 -45 -76 -39 c-59 -30 -79 -36 -92 -28 -10 7 -27 50 -44 110
-37 139 -37 140 10 128z m152 -64 c52 -23 104 -45 115 -50 19 -9 19 -9 -2 -16
-29 -8 -29 -19 -1 -38 12 -9 19 -16 15 -16 -15 0 -52 23 -97 60 -25 20 -70 54
-100 75 -61 42 -62 43 70 -15z m-225 -43 c29 -96 30 -104 11 -88 -23 19 -66
125 -59 149 10 39 22 24 48 -61z m-625 -122 c44 -36 83 -83 137 -165 42 -63
114 -157 161 -208 46 -51 82 -95 80 -98 -11 -10 -79 30 -73 44 2 7 0 10 -5 7
-6 -3 -10 -1 -10 4 0 6 -5 11 -10 11 -7 0 -7 -7 0 -21 13 -24 64 -57 100 -65
32 -7 176 -158 155 -162 -12 -3 -144 74 -180 105 -47 40 -25 11 36 -50 l77
-75 -82 -26 c-44 -14 -115 -35 -156 -47 -41 -12 -85 -28 -97 -35 -21 -13 -23
-12 -32 24 -5 20 -39 150 -74 287 -91 349 -125 533 -99 524 6 -2 38 -26 72
-54z m886 16 c-11 -18 -120 -62 -145 -58 l-26 3 30 8 c17 4 53 18 80 31 54 26
69 30 61 16z m2022 -226 c-3 -3 -9 2 -12 12 -6 14 -5 15 5 6 7 -7 10 -15 7
-18z m-11 -42 c18 -28 19 -21 -27 -458 -42 -400 -85 -831 -115 -1145 -28 -294
-62 -596 -75 -680 -26 -159 -73 -483 -89 -613 -20 -156 -33 -191 -77 -207 -41
-16 -62 -13 -365 50 -341 70 -594 114 -615 106 -8 -3 -13 -2 -10 3 5 8 -242
61 -282 61 -40 -1 15 -20 58 -21 25 0 38 -3 30 -6 -8 -4 -21 -12 -28 -20 -20
-19 7 -18 36 3 17 12 29 13 50 6 15 -6 20 -11 12 -12 -8 -1 -26 -4 -40 -7 -69
-14 -150 3 -134 28 3 5 0 9 -6 9 -7 0 -10 6 -7 14 4 11 -24 20 -121 39 -239
48 -354 76 -369 89 -9 7 -24 31 -34 53 -14 32 -75 342 -146 743 -5 27 -3 31
11 26 9 -3 16 -10 16 -14 0 -5 9 -12 20 -15 16 -5 20 -15 20 -49 0 -44 50
-390 71 -487 6 -30 18 -66 25 -82 27 -52 103 -87 223 -102 20 -3 91 -16 157
-29 65 -14 207 -41 314 -61 286 -52 649 -123 775 -151 61 -13 123 -24 138 -24
73 0 127 57 127 133 0 29 -4 36 -27 41 -26 7 -43 -5 -43 -31 0 -18 -41 -43
-70 -43 -14 0 -75 11 -135 25 -197 45 -417 93 -575 124 -85 17 -227 47 -315
66 -88 19 -215 46 -282 59 -210 42 -217 50 -264 326 -11 68 -30 148 -40 177
-23 61 -75 119 -137 152 -22 12 -20 6 -56 181 -39 189 -120 572 -165 780 -23
101 -41 192 -41 202 0 27 45 55 122 74 102 24 145 43 127 55 -8 5 -10 9 -5 9
5 0 4 6 -2 13 -8 9 8 18 71 36 45 13 176 53 292 88 115 35 295 89 400 119 250
73 733 216 864 256 99 31 104 31 117 14 7 -11 15 -22 16 -27 3 -6 536 145 546
156 9 9 45 -11 59 -32z m-2927 -423 c0 -5 -5 -10 -11 -10 -5 0 -7 5 -4 10 3 6
8 10 11 10 2 0 4 -4 4 -10z m-25 -31 c6 -17 9 -19 17 -8 8 11 9 10 4 -4 -3
-10 7 -40 23 -70 15 -28 31 -64 34 -78 13 -53 57 -299 55 -306 -2 -5 3 -21 9
-38 7 -16 33 -129 59 -250 25 -121 56 -272 70 -335 13 -63 24 -121 24 -128 0
-20 -49 -35 -69 -20 -14 11 -14 11 -4 -2 10 -13 7 -19 -22 -34 -33 -18 -37
-18 -125 0 -50 10 -96 21 -101 25 -11 6 -49 167 -124 514 -25 121 -65 294 -87
385 -22 91 -40 183 -41 205 l-2 40 125 62 c69 34 130 62 137 63 6 0 15 -10 18
-21z m3631 -110 c6 -5 19 -28 30 -51 10 -24 21 -45 25 -48 14 -11 49 -91 44
-100 -3 -6 -1 -10 4 -10 6 0 30 -37 53 -82 l42 -83 3 -151 4 -150 -53 -29
c-29 -16 -91 -52 -138 -81 -83 -50 -153 -91 -414 -241 -71 -41 -135 -72 -142
-69 -8 3 -13 0 -11 -6 1 -6 -17 -15 -41 -19 -23 -5 -47 -11 -52 -14 -6 -4 -8
5 -5 22 5 33 19 163 40 363 8 80 17 170 21 200 4 39 12 60 27 73 l22 18 -23
-6 c-21 -6 -22 -4 -17 32 3 21 10 83 15 137 6 55 12 101 13 102 19 14 406 198
414 197 7 0 11 3 8 7 -7 11 117 0 131 -11z m-3296 -112 c0 -2 -10 -12 -22 -23
l-23 -19 19 23 c18 21 26 27 26 19z m3553 -769 c-18 -191 -55 -303 -111 -341
-78 -51 -143 -78 -177 -74 -35 5 -95 36 -95 49 0 4 -7 8 -15 8 -8 0 -15 5 -15
11 0 6 -9 8 -22 3 -13 -4 -38 -10 -56 -15 -29 -6 -31 -5 -20 9 7 8 36 26 63
39 48 23 48 24 -5 8 -23 -7 -24 -7 -10 10 8 10 60 39 115 65 111 52 165 92
165 121 0 23 46 73 59 65 5 -3 11 0 14 8 4 10 98 73 113 76 1 0 0 -19 -3 -42z
m-416 -390 c7 -6 16 -7 21 -4 5 3 30 -6 56 -19 l47 -24 -39 -20 -39 -20 -72
36 c-40 19 -74 33 -77 30 -3 -2 23 -20 57 -39 78 -44 63 -57 -20 -18 -34 16
-59 24 -55 18 17 -27 38 -47 46 -42 4 3 16 0 25 -6 15 -8 12 -10 -17 -8 -29 3
-38 9 -54 39 -25 46 -16 89 19 89 13 0 57 -17 97 -39 61 -32 76 -36 86 -25 13
14 4 18 -35 17 -6 0 -9 5 -7 12 3 7 -6 12 -26 12 -17 0 -39 7 -48 17 -16 16
-16 17 3 10 11 -4 25 -11 32 -16z m-3837 -3 c31 -17 44 -19 34 -4 -8 14 64 3
83 -13 7 -5 16 -7 21 -4 9 5 169 -18 177 -26 3 -2 6 -28 7 -57 2 -46 -1 -54
-26 -76 -37 -32 -109 -45 -256 -48 l-122 -2 -45 49 c-51 57 -70 91 -75 131 -3
26 2 31 42 46 55 22 126 23 160 4z m730 -295 c0 -10 -11 -13 -27 -8 -5 1 -7 9
-5 16 2 9 -1 11 -9 6 -8 -4 -10 -3 -5 4 8 14 46 -2 46 -18z m2695 -112 c-8
-95 -50 -170 -107 -193 -49 -19 -60 -19 -54 3 2 9 7 55 11 102 l6 85 67 37
c37 20 71 37 75 38 5 0 6 -33 2 -72z m-96 -214 c-7 -8 -25 -22 -41 -30 -23
-12 -28 -12 -28 -1 0 7 15 21 33 30 41 20 53 21 36 1z m-2485 -149 c33 -60 43
-90 25 -79 -11 6 -11 5 0 -9 12 -15 12 -20 -1 -35 -12 -13 -48 -122 -70 -210
-4 -18 -13 188 -9 226 4 43 5 44 35 39 l31 -5 -27 11 c-16 6 -28 18 -28 28 0
20 11 79 15 79 2 0 15 -20 29 -45z m2435 -172 c1 -34 -3 -43 -16 -43 -17 -1
-16 -2 1 -15 17 -13 18 -24 13 -117 -4 -57 -7 -115 -7 -130 0 -25 -4 -28 -35
-28 -42 0 -42 -5 -21 196 8 77 18 171 22 209 l7 70 18 -50 c9 -27 18 -69 18
-92z m-2385 3 c4 -19 19 -59 34 -89 l28 -55 -72 -39 c-40 -21 -75 -35 -79 -31
-4 3 5 41 19 85 14 43 30 97 36 121 13 51 26 54 34 8z m986 -166 c18 -12 2
-12 -25 0 -13 6 -15 9 -5 9 8 0 22 -4 30 -9z m16 -28 c18 -11 18 -11 -3 -12
-13 0 -23 4 -23 10 0 5 -6 7 -13 4 -7 -2 -31 0 -52 5 -39 9 -38 9 16 6 31 -1
65 -7 75 -13z m51 -18 c-3 -3 -12 -4 -19 -1 -8 3 -5 6 6 6 11 1 17 -2 13 -5z
m106 -21 c-7 -2 -19 -2 -25 0 -7 3 -2 5 12 5 14 0 19 -2 13 -5z m70 -10 c-7
-2 -21 -2 -30 0 -10 3 -4 5 12 5 17 0 24 -2 18 -5z m-456 -99 l142 -27 -27
-24 c-41 -37 -65 -43 -167 -43 l-94 0 -17 31 c-9 17 -14 42 -11 55 2 13 0 21
-4 18 -5 -3 -9 2 -9 11 0 11 7 14 23 11 12 -3 86 -17 164 -32z m1577 -14 c19
0 21 -4 18 -42 l-4 -41 -34 39 c-36 43 -43 59 -18 50 9 -3 26 -6 38 -6z
m-1329 -35 c65 -9 39 -20 -70 -28 -61 -5 -74 -4 -55 4 21 9 38 14 60 18 3 1
-2 6 -10 12 -12 8 -11 9 5 5 11 -2 43 -7 70 -11z"/>
<path d="M4040 7860 c-9 -6 -10 -10 -3 -10 6 0 15 5 18 10 8 12 4 12 -15 0z"/>
<path d="M4055 7839 c-11 -17 1 -21 15 -4 8 9 8 15 2 15 -6 0 -14 -5 -17 -11z"/>
<path d="M4101 7845 c1 -19 18 -51 18 -35 0 8 -4 22 -9 30 -5 8 -9 11 -9 5z"/>
<path d="M4116 7755 c4 -8 8 -15 10 -15 2 0 4 7 4 15 0 8 -4 15 -10 15 -5 0
-7 -7 -4 -15z"/>
<path d="M4138 7750 c-5 -30 19 -83 32 -75 6 4 10 8 10 11 0 3 -5 2 -12 -2 -8
-5 -9 -2 -5 9 3 9 0 31 -7 49 -14 31 -14 32 -18 8z"/>
<path d="M4205 7630 c3 -5 8 -10 11 -10 2 0 4 5 4 10 0 6 -5 10 -11 10 -5 0
-7 -4 -4 -10z"/>
<path d="M6125 7843 c-47 -11 -251 -77 -258 -83 -5 -4 -2 -21 7 -38 18 -34 2
-36 175 14 77 22 86 23 108 9 25 -17 31 -63 14 -119 -5 -17 -15 -85 -21 -151
-11 -121 -25 -239 -80 -710 -49 -409 -69 -599 -65 -603 2 -2 20 -7 39 -12 32
-7 37 -6 41 14 3 11 23 170 45 351 22 182 52 416 65 520 47 366 77 630 76 675
-1 80 -31 121 -96 133 -17 3 -39 3 -50 0z"/>
<path d="M4598 7353 c-78 -29 -147 -85 -184 -149 -42 -71 -25 -83 43 -29 83
64 170 97 270 103 69 4 88 1 125 -17 57 -27 62 -27 53 7 -24 100 -166 139
-307 85z"/>
<path d="M5444 7356 c-58 -27 -84 -57 -84 -98 0 -34 12 -35 53 -4 65 48 131
57 213 29 57 -19 148 -76 169 -107 13 -18 17 -19 25 -6 15 23 12 47 -10 90
-53 104 -242 154 -366 96z"/>
<path d="M4091 7181 c-8 -5 -11 -16 -6 -30 4 -12 3 -28 -2 -34 -4 -7 -1 -5 9
5 17 19 33 25 23 8 -3 -5 1 -10 9 -10 20 0 21 14 3 32 -8 7 -12 19 -9 26 4 14
-7 15 -27 3z"/>
<path d="M5485 6995 c-50 -18 -108 -82 -130 -143 -37 -107 -29 -248 21 -350
29 -59 63 -82 120 -82 31 0 44 8 94 59 162 166 156 473 -11 521 -42 12 -45 12
-94 -5z m-3 -86 c42 -23 61 -115 32 -157 -22 -31 -57 -28 -88 9 -33 39 -35 95
-5 133 23 29 31 31 61 15z"/>
<path d="M4758 6990 c-46 -8 -98 -43 -127 -86 -78 -113 -91 -311 -28 -405 116
-170 337 26 337 299 0 143 -65 212 -182 192z m-4 -122 c9 -12 16 -42 16 -65 0
-35 -5 -46 -26 -60 -24 -15 -29 -15 -53 -2 -14 8 -32 27 -39 43 -34 69 59 145
102 84z"/>
<path d="M4975 6431 c-16 -4 -45 -15 -62 -24 -114 -60 -65 -262 82 -340 30
-16 57 -21 109 -20 59 0 79 6 144 39 95 49 142 104 142 167 0 50 -28 100 -68
121 -76 39 -285 74 -347 57z m165 -102 c56 -12 67 -29 18 -29 -39 0 -107 -30
-129 -56 -9 -10 -23 -32 -32 -49 l-15 -30 -12 27 c-26 55 5 119 66 138 40 12
46 11 104 -1z"/>
<path d="M4045 6120 c-3 -5 -1 -10 4 -10 6 0 11 5 11 10 0 6 -2 10 -4 10 -3 0
-8 -4 -11 -10z"/>
<path d="M4127 6091 c-4 -17 -3 -21 5 -13 5 5 8 16 6 23 -3 8 -7 3 -11 -10z"/>
<path d="M5538 6099 c-29 -17 -21 -46 20 -70 20 -12 39 -24 41 -26 9 -7 -55
-66 -93 -85 -81 -42 -127 -50 -301 -55 -183 -5 -296 8 -418 48 -60 19 -113 61
-102 80 4 5 19 9 34 9 34 0 49 36 26 60 -18 17 -123 17 -157 -1 -77 -39 -106
-119 -52 -140 21 -7 31 -6 45 7 22 20 21 20 39 -26 22 -57 90 -170 129 -213
139 -154 395 -200 586 -105 132 66 220 157 291 301 40 80 52 91 61 57 6 -24
12 -25 41 -4 49 34 18 92 -76 142 -63 34 -86 38 -114 21z m-355 -339 c139 0
146 -3 106 -54 -86 -110 -291 -88 -356 38 l-15 29 68 -6 c38 -4 126 -7 197 -7z"/>
<path d="M4060 6085 c0 -5 5 -17 10 -25 5 -8 10 -10 10 -5 0 6 -5 17 -10 25
-5 8 -10 11 -10 5z"/>
<path d="M4780 5039 c0 -5 5 -7 10 -4 6 3 10 8 10 11 0 2 -4 4 -10 4 -5 0 -10
-5 -10 -11z"/>
<path d="M3306 7385 c-9 -26 -7 -32 5 -12 6 10 9 21 6 23 -2 3 -7 -2 -11 -11z"/>
<path d="M3646 6613 c-6 -14 -5 -15 5 -6 7 7 10 15 7 18 -3 3 -9 -2 -12 -12z"/>
<path d="M6555 6950 c-3 -6 1 -7 9 -4 18 7 21 14 7 14 -6 0 -13 -4 -16 -10z"/>
<path d="M6585 6334 l-30 -26 35 23 c45 29 45 29 34 29 -5 0 -22 -12 -39 -26z"/>
<path d="M7162 6364 c-7 -8 -8 -14 -3 -14 10 0 25 19 20 25 -2 1 -10 -3 -17
-11z"/>
<path d="M7215 6290 c-3 -5 -13 -7 -23 -4 -15 5 -15 4 -2 -6 12 -9 10 -10 -13
-6 -15 4 -33 3 -40 -1 -7 -4 -16 -8 -22 -9 -16 -3 -125 -54 -125 -59 0 -2 6
-3 13 -1 6 2 35 10 62 17 28 6 59 17 70 23 11 5 25 11 32 12 29 5 83 26 88 35
4 5 -3 9 -14 9 -11 0 -22 -4 -26 -10z"/>
<path d="M3231 6096 c2 -2 15 -9 29 -15 24 -11 24 -11 6 3 -16 13 -49 24 -35
12z"/>
<path d="M3154 6074 c9 -8 16 -24 16 -34 0 -10 5 -22 12 -26 8 -5 9 -2 4 11
-9 23 13 38 33 22 12 -10 12 -9 0 10 -8 14 -20 21 -31 18 -9 -3 -19 -1 -23 5
-3 5 -11 10 -16 10 -6 0 -3 -7 5 -16z"/>
<path d="M2900 6056 c0 -11 30 -66 36 -66 2 0 -3 15 -12 33 -19 36 -24 44 -24
33z"/>
<path d="M6480 5670 c-9 -6 -10 -10 -3 -10 6 0 15 5 18 10 8 12 4 12 -15 0z"/>
<path d="M6380 5620 c-9 -6 -10 -10 -3 -10 6 0 15 5 18 10 8 12 4 12 -15 0z"/>
<path d="M6338 5053 c7 -3 16 -2 19 1 4 3 -2 6 -13 5 -11 0 -14 -3 -6 -6z"/>
<path d="M7430 7561 c0 -6 4 -13 10 -16 6 -3 7 1 4 9 -7 18 -14 21 -14 7z"/>
<path d="M7455 7521 c-3 -5 -1 -12 5 -16 5 -3 10 1 10 9 0 18 -6 21 -15 7z"/>
<path d="M7492 7439 c6 -16 12 -29 13 -27 6 6 -8 58 -16 58 -4 0 -3 -14 3 -31z"/>
<path d="M7527 7359 c7 -7 15 -10 18 -7 3 3 -2 9 -12 12 -14 6 -15 5 -6 -5z"/>
<path d="M7555 7319 c-4 -6 -5 -12 -2 -15 2 -3 7 2 10 11 7 17 1 20 -8 4z"/>
<path d="M7585 7249 c16 -30 32 -41 21 -14 -3 9 0 15 9 15 8 0 15 -4 15 -10 0
-5 7 -10 15 -10 8 0 15 4 15 9 0 9 -16 17 -62 31 l-28 9 15 -30z"/>
<path d="M7616 7202 c-2 -4 -1 -14 3 -21 6 -9 10 -7 14 8 5 20 -7 29 -17 13z"/>
<path d="M7715 7180 c3 -5 15 -10 26 -10 10 0 19 5 19 10 0 6 -12 10 -26 10
-14 0 -23 -4 -19 -10z"/>
<path d="M7636 7145 c4 -8 8 -15 10 -15 2 0 4 7 4 15 0 8 -4 15 -10 15 -5 0
-7 -7 -4 -15z"/>
<path d="M7680 7140 c0 -5 4 -10 9 -10 6 0 13 5 16 10 3 6 -1 10 -9 10 -9 0
-16 -4 -16 -10z"/>
<path d="M7650 7075 c0 -16 8 -21 35 -22 19 -2 35 2 35 7 0 6 -10 10 -23 10
-13 0 -28 5 -35 12 -9 9 -12 8 -12 -7z"/>
<path d="M7885 7060 c4 -6 11 -8 16 -5 14 9 11 15 -7 15 -8 0 -12 -5 -9 -10z"/>
<path d="M7720 7030 c-18 -14 -21 -20 -9 -20 9 0 24 -9 33 -19 21 -23 109 -34
101 -13 -3 8 -5 15 -5 16 0 2 -18 0 -40 -4 -31 -6 -40 -4 -40 6 0 8 -7 14 -15
14 -8 0 -15 5 -15 10 0 6 7 10 15 10 8 0 15 5 15 10 0 15 -12 12 -40 -10z"/>
<path d="M7662 7020 c0 -14 2 -19 5 -12 2 6 2 18 0 25 -3 6 -5 1 -5 -13z"/>
<path d="M7880 6997 c0 -7 9 -23 20 -35 29 -30 25 -35 -20 -28 -46 7 -53 -5
-12 -21 24 -10 25 -11 5 -12 -12 -1 -25 4 -28 9 -3 6 -14 10 -24 10 -10 0 -24
7 -31 15 -7 8 -21 15 -31 15 -11 0 -19 5 -19 10 0 15 -21 12 -42 -7 -18 -16
-23 -10 -19 25 1 6 -3 12 -10 12 -7 0 -9 -9 -5 -22 3 -13 6 -57 6 -98 0 -56 3
-71 11 -57 5 9 19 17 29 17 25 0 27 -20 3 -20 -10 0 -26 -7 -37 -15 -21 -16
-20 -27 19 -135 48 -130 34 -318 -36 -486 -17 -41 -42 -90 -55 -110 -13 -19
-22 -40 -18 -45 3 -5 1 -8 -4 -7 -5 2 -36 -22 -70 -53 l-61 -57 35 -66 c77
-145 79 -301 4 -406 -13 -18 -19 -49 -21 -115 -3 -69 -10 -101 -28 -138 -25
-52 -112 -153 -139 -161 -9 -3 -32 -35 -51 -71 -82 -160 -263 -253 -492 -255
-69 0 -79 -6 -79 -48 0 -48 -78 -164 -128 -191 l-22 -12 24 -42 c13 -23 32
-67 40 -97 19 -63 22 -202 7 -243 -6 -16 -11 -30 -11 -32 0 -2 145 -5 323 -8
243 -3 336 -8 377 -19 304 -83 505 -278 581 -566 28 -102 30 -293 5 -407 -71
-325 -304 -573 -583 -620 l-43 -7 0 -54 c0 -60 -27 -147 -59 -192 l-20 -29 40
-39 c22 -21 54 -67 71 -102 76 -154 19 -342 -130 -430 l-47 -27 -1190 -5
c-654 -3 -1543 -6 -1975 -5 l-785 0 -44 22 c-24 12 -48 20 -53 17 -5 -3 -8 -2
-6 3 1 4 -14 24 -34 45 -61 63 -82 120 -83 223 0 50 4 102 8 116 8 24 5 28
-22 37 l-31 11 1 -87 c2 -142 35 -292 65 -292 7 0 16 -4 19 -10 3 -6 -1 -7 -9
-4 -28 11 -17 -5 14 -21 17 -9 30 -22 30 -30 0 -8 11 -17 25 -21 13 -3 23 -11
22 -17 -1 -6 9 -13 23 -15 13 -2 34 -10 45 -18 20 -14 20 -15 0 -13 -40 4 -75
-1 -75 -11 0 -5 22 -8 50 -6 28 2 53 0 56 -5 3 -5 -6 -9 -20 -9 -14 0 -26 -4
-26 -10 0 -5 7 -10 15 -10 8 0 15 -7 15 -16 0 -11 5 -14 16 -10 21 8 84 -3 84
-15 0 -5 -9 -9 -20 -9 -11 0 -20 5 -20 10 0 6 -7 10 -15 10 -18 0 -20 -26 -3
-36 7 -5 21 -9 30 -9 16 -2 75 -55 61 -55 -4 0 -2 -5 5 -12 8 -8 15 -8 27 2 8
7 15 8 15 2 0 -5 -7 -15 -15 -22 -22 -18 -18 -30 10 -30 14 0 25 -4 25 -10 0
-5 -5 -10 -11 -10 -5 0 -7 -4 -4 -10 10 -16 21 -12 31 10 7 14 13 17 24 10 13
-8 12 -10 -2 -10 -20 0 -24 -15 -8 -25 6 -4 9 -14 8 -23 -2 -10 3 -16 10 -14
7 1 23 -5 35 -14 l22 -16 -23 5 c-19 4 -21 3 -11 -9 6 -8 18 -14 26 -14 7 0
16 -7 19 -15 3 -8 14 -17 25 -20 20 -7 27 -35 9 -35 -5 0 -10 -4 -10 -8 0 -5
10 -8 22 -8 15 1 24 -6 28 -24 3 -14 14 -26 24 -28 11 -3 16 0 12 7 -4 6 -2
11 3 11 6 0 11 -11 11 -25 0 -14 4 -25 9 -25 5 0 11 -9 14 -21 3 -12 10 -19
14 -16 5 3 15 2 23 -4 12 -7 12 -9 1 -9 -7 0 2 -15 21 -32 20 -18 33 -38 31
-45 -2 -6 1 -14 6 -18 6 -3 11 -1 11 6 0 9 3 9 14 -1 8 -6 12 -18 9 -26 -3 -8
1 -14 11 -14 8 0 18 -11 22 -25 3 -14 11 -25 16 -25 12 0 58 -47 58 -59 0 -4
11 -13 25 -19 14 -6 25 -17 25 -23 0 -20 35 -56 50 -51 13 5 13 3 1 -11 -11
-14 -11 -18 5 -23 11 -4 33 -18 51 -30 18 -14 38 -21 47 -18 9 3 16 1 16 -5 0
-6 -4 -11 -10 -11 -24 0 -8 -38 20 -50 18 -7 30 -20 30 -31 0 -10 9 -19 20
-21 12 -2 21 -7 22 -13 0 -5 9 -16 19 -23 14 -9 17 -20 13 -38 -5 -17 -2 -24
9 -24 8 0 17 6 20 13 4 9 7 9 18 -1 8 -7 9 -12 2 -12 -6 0 -10 -10 -10 -23 0
-20 4 -22 35 -19 20 3 32 1 29 -5 -3 -5 -2 -15 3 -23 5 -9 4 -20 -3 -29 -10
-12 -9 -14 4 -9 8 3 26 0 40 -8 13 -7 18 -13 12 -14 -7 0 -13 -5 -13 -11 0 -6
8 -8 18 -5 23 8 50 -9 28 -17 -22 -8 -20 -25 2 -23 9 0 17 -6 17 -14 0 -8 4
-21 8 -27 7 -10 603 -13 2928 -13 l2919 0 0 2351 c0 2228 -1 2353 -17 2365
-15 12 -15 13 -2 8 14 -4 17 3 17 40 1 34 -3 46 -16 49 -16 4 -16 5 1 6 9 0
17 6 17 11 0 12 -4 12 -52 1 -22 -5 -38 -5 -38 0 0 5 8 9 18 10 13 0 11 3 -6
10 -13 5 -20 13 -17 19 3 6 -4 10 -18 10 -14 0 -27 7 -31 15 -5 13 -2 14 15 4
17 -9 25 -8 37 5 15 15 14 16 -15 16 -18 0 -35 5 -38 10 -3 6 -29 10 -56 10
-52 0 -89 13 -89 31 0 5 7 9 16 7 9 -2 23 8 32 21 16 23 15 23 -5 17 -47 -15
-91 -16 -96 -2 -3 8 -19 17 -36 21 -17 4 -33 11 -36 16 -8 12 55 -1 81 -18 19
-12 22 -12 28 2 5 13 1 15 -15 10 -15 -5 -19 -4 -15 4 5 7 -2 11 -18 11 -14 0
-26 5 -26 10 0 6 14 10 31 10 19 0 28 4 24 11 -4 6 -19 7 -36 4 -23 -5 -34 -2
-48 14 -10 12 -26 21 -35 21 -9 0 -16 7 -16 15 0 8 9 15 20 15 11 0 20 5 20
10 0 15 -27 12 -61 -6 -29 -14 -31 -14 -27 3 2 10 10 17 17 15 9 -2 11 3 7 13
-3 9 -6 25 -6 35 0 14 -9 20 -32 22 -21 2 -33 8 -33 18 0 8 -9 15 -20 15 -12
0 -21 9 -25 24 -3 12 -17 28 -32 35 -22 9 -25 14 -17 26 8 11 12 12 16 3 9
-23 35 -15 31 10 -2 17 -9 22 -31 20 -17 -1 -27 3 -27 12 0 7 -12 18 -27 23
-21 8 -23 11 -9 11 11 1 27 -5 35 -13 14 -13 19 -12 36 1 19 15 19 15 -4 8
-16 -5 -21 -4 -17 4 5 7 -1 11 -14 11 -16 0 -20 5 -16 15 3 10 -3 17 -21 21
-24 6 -24 8 -9 19 15 11 15 13 1 19 -9 3 -14 2 -11 -3 3 -5 -1 -12 -10 -15
-22 -8 -26 -8 -19 4 3 6 -2 10 -12 10 -21 0 -43 18 -43 34 0 6 5 5 12 -2 7 -7
21 -12 32 -12 26 0 13 12 -37 32 -23 9 -37 17 -32 17 17 1 12 41 -5 41 -22 0
-61 30 -54 41 4 6 11 6 20 -2 8 -6 17 -9 20 -6 3 3 -4 10 -15 17 -12 6 -21 8
-21 4 0 -4 -8 0 -17 8 -10 9 -28 19 -40 22 -13 4 -23 11 -23 15 0 5 -13 11
-30 15 -27 5 -44 36 -20 36 6 0 10 -7 10 -15 0 -19 24 -19 40 0 11 13 10 14
-4 9 -12 -5 -16 0 -16 20 0 14 -4 26 -10 26 -5 0 -10 -7 -10 -15 0 -18 -9 -19
-30 -4 -11 8 -12 12 -3 16 10 3 10 8 -1 19 -19 19 -27 18 -19 -2 5 -14 2 -16
-21 -10 -15 4 -33 3 -39 -1 -7 -5 -30 -6 -52 -2 -35 5 -36 6 -10 8 61 3 105
14 105 27 0 7 8 15 18 18 9 2 1 2 -19 -1 -26 -3 -40 0 -45 9 -5 8 -17 18 -27
21 -10 4 -15 12 -12 18 5 8 10 8 18 0 16 -16 27 -13 21 4 -8 19 -43 19 -68 0
-16 -12 -22 -12 -44 3 l-26 17 39 5 40 5 -45 29 c-25 16 -39 31 -32 34 17 5
15 22 -3 22 -8 0 -15 -4 -15 -10 0 -15 -43 -12 -66 5 -12 8 -24 11 -28 8 -3
-3 -6 -1 -6 5 0 6 5 14 10 17 8 5 7 11 -1 21 -13 16 -69 15 -81 -1 -4 -5 -10
-6 -15 -2 -10 11 17 26 35 19 10 -3 13 0 10 9 -3 8 -10 13 -16 12 -5 -1 -16 4
-22 12 -10 12 -10 18 0 30 15 18 5 35 -20 35 -27 0 -51 11 -45 21 3 4 -10 11
-30 15 -32 6 -51 34 -23 34 6 0 8 3 5 7 -4 3 -2 12 4 20 9 10 7 13 -10 13 -12
0 -20 -4 -17 -9 3 -5 -1 -11 -9 -15 -18 -6 -30 10 -13 18 7 3 -6 2 -29 -1 -29
-4 -43 -2 -43 6 0 6 18 11 43 12 l42 1 -39 9 c-55 13 -112 49 -94 60 9 6 7 9
-9 9 -18 0 -23 -6 -23 -27 -1 -26 -2 -27 -15 -10 -12 16 -11 21 6 38 15 15 28
18 54 13 23 -4 35 -2 35 5 0 6 -10 12 -22 12 -13 1 -39 3 -58 5 -19 1 -38 -3
-42 -9 -7 -12 -46 3 -80 31 -9 8 -22 11 -27 7 -6 -3 -11 -1 -11 5 0 12 17 10
75 -7 11 -3 17 -2 13 2 -4 5 -3 14 4 22 17 21 1 28 -25 10 -22 -14 -25 -14
-48 8 -41 41 -50 55 -43 67 4 6 0 16 -8 22 -8 6 -17 19 -21 29 -6 16 -1 17 66
12 70 -5 71 -5 43 10 -16 9 -36 13 -43 11 -7 -3 -13 -1 -13 3 0 5 6 11 13 14
6 2 8 8 4 13 -4 4 -17 3 -27 -4 -11 -7 -24 -12 -29 -12 -15 0 -81 62 -81 76 0
21 -17 25 -35 8 -14 -14 -20 -15 -41 -3 -21 11 -25 19 -20 41 5 23 2 28 -15
28 -11 0 -27 6 -35 14 -14 15 -54 11 -54 -5 0 -5 -18 -9 -39 -9 -40 0 -52 11
-57 57 -2 15 4 24 17 28 24 8 24 16 -1 45 -11 13 -20 29 -20 37 0 7 -4 13 -10
13 -5 0 -10 -6 -10 -13z m-136 -63 c29 -11 18 -31 -14 -26 -23 3 -30 0 -30
-12 0 -9 -4 -16 -10 -16 -14 0 -13 33 2 48 13 13 28 15 52 6z m72 -64 c13 0
24 -5 24 -10 0 -7 -30 -9 -80 -8 -44 2 -80 6 -80 10 0 13 25 17 69 13 24 -3
54 -5 67 -5z m64 0 c0 -5 -4 -10 -9 -10 -6 0 -13 5 -16 10 -3 6 1 10 9 10 9 0
16 -4 16 -10z m62 -62 c23 0 55 3 70 7 15 4 36 4 45 0 10 -5 22 -7 26 -6 5 1
5 -4 1 -10 -4 -7 -21 -9 -45 -5 -24 4 -39 2 -39 -4 0 -13 -57 -13 -65 -1 -3 5
-21 8 -40 6 -23 -2 -35 1 -35 9 0 20 12 27 26 16 6 -6 32 -11 56 -12z m-137 2
c3 -5 -1 -10 -9 -10 -9 0 -16 5 -16 10 0 6 4 10 9 10 6 0 13 -4 16 -10z m-70
-50 c-7 -12 -65 -14 -65 -2 0 4 16 9 36 10 23 2 33 -1 29 -8z m350 -11 c-6
-19 -4 -21 18 -15 34 8 57 -2 57 -25 0 -26 -16 -24 -24 4 -6 22 -7 22 -21 2
-15 -19 -15 -19 -31 3 -12 18 -25 22 -65 22 -27 0 -49 4 -49 9 0 5 25 7 55 5
30 -1 55 1 55 7 0 5 3 9 6 9 3 0 2 -10 -1 -21z m-138 5 c-3 -3 -12 -4 -19 -1
-8 3 -5 6 6 6 11 1 17 -2 13 -5z m-222 -78 c0 -19 -2 -33 -6 -30 -4 2 -7 20
-6 39 1 43 10 37 12 -9z m319 32 c-5 -8 0 -9 14 -6 24 7 30 -7 8 -15 -22 -9
-87 4 -80 15 4 5 15 8 25 5 11 -3 19 -1 19 4 0 5 5 9 11 9 5 0 7 -5 3 -12z
m167 -9 c16 -11 29 -27 29 -36 0 -19 -21 -12 -34 12 -6 11 -18 25 -26 32 -25
21 0 14 31 -8z m-439 -12 c-12 -6 -25 -7 -29 -3 -11 10 18 25 35 18 13 -4 11
-8 -6 -15z m409 -33 c5 -15 12 -24 16 -20 3 3 12 1 20 -5 9 -9 13 -8 13 0 0 6
4 11 10 11 5 0 7 -6 4 -14 -3 -7 2 -21 12 -30 9 -9 14 -20 10 -23 -3 -3 -14 5
-24 17 l-19 24 -5 -34 c-4 -26 1 -39 24 -65 28 -32 36 -55 19 -55 -5 0 -14 7
-21 15 -7 9 -19 14 -26 11 -8 -3 -11 0 -7 10 3 8 0 21 -7 29 -7 8 -10 29 -8
46 3 20 0 33 -9 36 -7 3 -13 11 -13 19 0 7 -6 12 -12 10 -7 -1 -10 -1 -5 1 4
3 7 13 7 24 0 27 9 24 21 -7z m-71 12 c0 -2 -7 -6 -15 -10 -8 -3 -15 -1 -15 4
0 6 7 10 15 10 8 0 15 -2 15 -4z m-75 -16 c3 -5 -1 -10 -9 -10 -9 0 -16 5 -16
10 0 6 4 10 9 10 6 0 13 -4 16 -10z m95 -39 c0 -8 -6 -11 -16 -7 -9 3 -20 6
-25 6 -5 0 -9 3 -9 8 0 4 11 7 25 7 14 0 25 -6 25 -14z m-393 -23 c-3 -8 -6
-5 -6 6 -1 11 2 17 5 13 3 -3 4 -12 1 -19z m383 -28 c-8 -5 -22 -9 -30 -9 -10
0 -8 3 5 9 27 12 43 12 25 0z m-70 -10 c0 -5 -7 -10 -15 -10 -8 0 -15 5 -15
10 0 6 7 10 15 10 8 0 15 -4 15 -10z m226 -5 c19 -14 19 -14 -2 -15 -12 0 -27
7 -34 15 -17 20 9 21 36 0z m-146 -15 c0 -5 -7 -10 -15 -10 -8 0 -15 5 -15 10
0 6 7 10 15 10 8 0 15 -4 15 -10z m175 -20 c3 -5 2 -10 -4 -10 -5 0 -13 5 -16
10 -3 6 -2 10 4 10 5 0 13 -4 16 -10z m-325 -20 c0 -5 -5 -10 -11 -10 -5 0 -7
5 -4 10 3 6 8 10 11 10 2 0 4 -4 4 -10z m-197 -17 c-7 -2 -19 -2 -25 0 -7 3
-2 5 12 5 14 0 19 -2 13 -5z m297 -3 c0 -5 -2 -10 -4 -10 -3 0 -8 5 -11 10 -3
6 -1 10 4 10 6 0 11 -4 11 -10z m150 -21 c0 -5 -7 -9 -15 -9 -15 0 -20 12 -9
23 8 8 24 -1 24 -14z m65 -18 c3 -5 1 -12 -5 -16 -5 -3 -10 1 -10 9 0 18 6 21
15 7z m-115 -27 c0 -2 -7 -4 -15 -4 -8 0 -15 4 -15 10 0 5 7 7 15 4 8 -4 15
-8 15 -10z m217 0 c-3 -3 -12 -4 -19 -1 -8 3 -5 6 6 6 11 1 17 -2 13 -5z m-77
-23 c0 -9 57 -8 66 2 11 10 44 9 44 -2 0 -28 -83 -37 -116 -13 -26 19 -32 34
-9 26 8 -4 15 -9 15 -13z m-56 -17 c4 -11 1 -14 -11 -12 -9 2 -18 9 -21 16 -6
18 25 15 32 -4z m-104 -44 c0 -5 -7 -10 -16 -10 -8 0 -12 5 -9 10 3 6 10 10
16 10 5 0 9 -4 9 -10z m338 3 c-10 -2 -26 -2 -35 0 -10 3 -2 5 17 5 19 0 27
-2 18 -5z m-182 -51 c14 -34 88 -112 106 -112 4 0 8 -4 8 -10 0 -5 -7 -10 -15
-10 -8 0 -15 -7 -15 -15 0 -8 9 -15 20 -15 12 0 20 -7 20 -16 0 -13 -3 -14
-15 -4 -25 21 -48 -13 -50 -78 -1 -31 -7 -68 -12 -82 -36 -86 -43 -100 -54
-100 -8 0 -8 4 -1 13 6 7 16 42 22 77 7 36 14 77 17 93 4 20 1 27 -10 27 -15
0 -27 20 -27 43 0 7 7 3 16 -8 13 -17 16 -18 24 -5 7 10 5 18 -5 26 -19 14
-19 24 0 24 7 0 18 7 23 16 10 19 4 54 -9 54 -10 0 -79 106 -79 121 0 20 20
-3 36 -39z m104 32 c0 -17 -22 -14 -28 4 -2 7 3 12 12 12 9 0 16 -7 16 -16z
m130 6 c0 -5 -4 -10 -9 -10 -6 0 -13 5 -16 10 -3 6 1 10 9 10 9 0 16 -4 16
-10z m-330 -10 c0 -5 -2 -10 -4 -10 -3 0 -8 5 -11 10 -3 6 -1 10 4 10 6 0 11
-4 11 -10z m420 -44 c0 -9 -7 -12 -20 -9 -31 8 -34 23 -6 23 16 0 26 -6 26
-14z m-215 -16 c3 -6 -1 -7 -9 -4 -18 7 -21 14 -7 14 6 0 13 -4 16 -10z m162
-26 c-3 -3 -12 -4 -19 -1 -8 3 -5 6 6 6 11 1 17 -2 13 -5z m133 -19 c0 -9 -6
-12 -15 -9 -8 4 -12 10 -9 15 8 14 24 10 24 -6z m-447 -42 c-7 -2 -19 -2 -25
0 -7 3 -2 5 12 5 14 0 19 -2 13 -5z m424 1 c-3 -3 -12 -4 -19 -1 -8 3 -5 6 6
6 11 1 17 -2 13 -5z m63 -4 c0 -12 -28 -25 -36 -17 -9 9 6 27 22 27 8 0 14 -5
14 -10z m-289 -17 c13 -16 12 -17 -3 -4 -10 7 -18 15 -18 17 0 8 8 3 21 -13z
m6 -45 c-3 -8 -6 -5 -6 6 -1 11 2 17 5 13 3 -3 4 -12 1 -19z m-277 8 c0 -3 -4
-8 -10 -11 -5 -3 -10 -1 -10 4 0 6 5 11 10 11 6 0 10 -2 10 -4z m657 -12 c-3
-3 -12 -4 -19 -1 -8 3 -5 6 6 6 11 1 17 -2 13 -5z m-389 -26 c16 -16 15 -28
-2 -28 -8 0 -17 7 -20 16 -3 8 -10 12 -16 9 -5 -3 -10 -1 -10 4 0 15 33 14 48
-1z m372 2 c0 -5 -7 -10 -15 -10 -8 0 -15 5 -15 10 0 6 7 10 15 10 8 0 15 -4
15 -10z m-530 -18 c0 -5 -9 -18 -20 -30 -11 -12 -20 -31 -20 -43 0 -22 -26
-59 -41 -59 -10 0 15 62 43 108 18 30 38 42 38 24z m133 -22 c3 -11 1 -20 -4
-20 -5 0 -12 -1 -16 -2 -3 -2 -7 7 -8 20 -2 27 21 29 28 2z m-116 -35 c-7 -7
-16 -10 -21 -5 -12 12 2 30 19 24 11 -5 12 -9 2 -19z m192 -1 c3 -2 -4 -12
-15 -23 -22 -20 -41 -10 -41 22 0 15 6 17 26 12 14 -4 28 -9 30 -11z m16 -34
c3 -5 1 -10 -4 -10 -6 0 -11 5 -11 10 0 6 2 10 4 10 3 0 8 -4 11 -10z m-95
-21 c0 -5 -7 -9 -15 -9 -15 0 -20 12 -9 23 8 8 24 -1 24 -14z m445 1 c3 -6 -1
-7 -9 -4 -18 7 -21 14 -7 14 6 0 13 -4 16 -10z m-760 -10 c-3 -5 -11 -10 -16
-10 -6 0 -7 5 -4 10 3 6 11 10 16 10 6 0 7 -4 4 -10z m415 -10 c0 -5 -2 -10
-4 -10 -3 0 -8 5 -11 10 -3 6 -1 10 4 10 6 0 11 -4 11 -10z m380 6 c0 -3 -4
-8 -10 -11 -5 -3 -10 -1 -10 4 0 6 5 11 10 11 6 0 10 -2 10 -4z m-348 -61 c9
-20 9 -20 -6 -1 -9 11 -16 27 -15 35 0 14 1 14 6 1 3 -8 10 -24 15 -35z m468
25 c0 -11 -4 -20 -8 -20 -4 0 -8 9 -8 20 0 11 4 20 8 20 4 0 8 -9 8 -20z
m-952 -30 c-15 -24 -22 -19 -13 9 3 12 11 19 16 16 5 -4 3 -14 -3 -25z m202
20 c0 -5 -4 -10 -10 -10 -5 0 -10 5 -10 10 0 6 5 10 10 10 6 0 10 -4 10 -10z
m-107 -28 c-3 -12 -9 -22 -14 -22 -14 0 -11 38 4 43 16 6 17 5 10 -21z m117
-36 c0 -3 -4 -8 -10 -11 -5 -3 -10 -1 -10 4 0 6 5 11 10 11 6 0 10 -2 10 -4z
m897 -42 c-3 -3 -12 -4 -19 -1 -8 3 -5 6 6 6 11 1 17 -2 13 -5z m-44 -31 c-7
-2 -21 -2 -30 0 -10 3 -4 5 12 5 17 0 24 -2 18 -5z m147 -31 c0 -4 -11 -9 -25
-10 -14 -1 -25 3 -25 8 0 6 11 10 25 10 14 0 25 -4 25 -8z m-210 -42 c0 -5 -4
-10 -9 -10 -6 0 -13 5 -16 10 -3 6 1 10 9 10 9 0 16 -4 16 -10z m170 -30 c0
-5 -2 -10 -4 -10 -3 0 -8 5 -11 10 -3 6 -1 10 4 10 6 0 11 -4 11 -10z m135
-31 c-4 -5 -25 -8 -48 -7 l-42 1 38 4 c20 2 37 9 37 14 0 6 5 7 10 4 6 -4 8
-11 5 -16z m-285 -13 c0 -3 -4 -8 -10 -11 -5 -3 -10 -1 -10 4 0 6 5 11 10 11
6 0 10 -2 10 -4z m75 -26 c3 -5 -1 -10 -9 -10 -8 0 -18 5 -21 10 -3 6 1 10 9
10 8 0 18 -4 21 -10z m-75 -10 c0 -5 -4 -10 -9 -10 -6 0 -13 5 -16 10 -3 6 1
10 9 10 9 0 16 -4 16 -10z m10 -40 c0 -5 -5 -10 -11 -10 -5 0 -7 5 -4 10 3 6
8 10 11 10 2 0 4 -4 4 -10z m350 -30 c0 -5 -4 -10 -10 -10 -5 0 -10 5 -10 10
0 6 5 10 10 10 6 0 10 -4 10 -10z m-213 -36 c-3 -3 -12 -4 -19 -1 -8 3 -5 6 6
6 11 1 17 -2 13 -5z m183 -24 c0 -5 -7 -7 -15 -4 -8 4 -15 8 -15 10 0 2 7 4
15 4 8 0 15 -4 15 -10z m110 -50 c0 -5 -10 -10 -22 -10 -19 0 -20 2 -8 10 19
13 30 13 30 0z m-283 -6 c-3 -3 -12 -4 -19 -1 -8 3 -5 6 6 6 11 1 17 -2 13 -5z
m335 -76 c-9 -9 -15 -9 -24 0 -9 9 -7 12 12 12 19 0 21 -3 12 -12z m101 -96
c-6 -26 -18 -29 -27 -6 -3 8 -2 12 4 9 6 -3 13 1 16 10 9 23 14 13 7 -13z
m-63 8 c0 -5 -8 -10 -17 -10 -15 0 -16 2 -3 10 19 12 20 12 20 0z m-92 -25
c-3 -3 -9 2 -12 12 -6 14 -5 15 5 6 7 -7 10 -15 7 -18z m-28 -15 c0 -5 -2 -10
-4 -10 -3 0 -8 5 -11 10 -3 6 -1 10 4 10 6 0 11 -4 11 -10z m240 -36 c0 -2 -7
-4 -15 -4 -8 0 -15 4 -15 10 0 5 7 7 15 4 8 -4 15 -8 15 -10z m-127 -1 c-7 -2
-19 -2 -25 0 -7 3 -2 5 12 5 14 0 19 -2 13 -5z m83 -12 c-3 -5 -15 -7 -26 -4
-28 7 -25 13 6 13 14 0 23 -4 20 -9z m114 -23 c0 -11 -28 -10 -35 2 -3 5 -12
7 -20 3 -8 -3 -15 -1 -15 5 0 6 5 12 12 14 14 5 58 -14 58 -24z m-295 -8 c3
-5 1 -10 -4 -10 -6 0 -11 5 -11 10 0 6 2 10 4 10 3 0 8 -4 11 -10z m270 -50
c3 -5 2 -10 -4 -10 -5 0 -13 5 -16 10 -3 6 -2 10 4 10 5 0 13 -4 16 -10z
m-710 -40 c3 -5 1 -10 -4 -10 -6 0 -11 5 -11 10 0 6 2 10 4 10 3 0 8 -4 11
-10z m825 -20 c0 -5 -4 -10 -9 -10 -5 0 -17 -3 -27 -7 -16 -6 -17 -5 -4 10 17
18 40 22 40 7z m-90 -16 c0 -2 -17 -4 -37 -4 -24 0 -33 3 -25 9 12 7 62 4 62
-5z m105 -23 c3 -5 1 -12 -5 -16 -5 -3 -10 1 -10 9 0 18 6 21 15 7z m135 -21
c0 -5 -9 -10 -19 -10 -11 0 -23 5 -26 10 -4 6 5 10 19 10 14 0 26 -4 26 -10z
m-1033 -26 c-3 -3 -12 -4 -19 -1 -8 3 -5 6 6 6 11 1 17 -2 13 -5z m1073 -14
c12 -8 11 -10 -7 -10 -13 0 -23 5 -23 10 0 13 11 13 30 0z m0 -70 c0 -5 -8
-10 -17 -10 -15 0 -16 2 -3 10 19 12 20 12 20 0z m100 -5 c26 8 26 -6 0 -23
-17 -10 -23 -10 -35 2 -20 20 -20 43 0 26 8 -6 23 -9 35 -5z m15 -125 c4 -6
-11 -10 -39 -10 -25 0 -48 5 -51 10 -4 6 11 10 39 10 25 0 48 -4 51 -10z m-65
-30 c0 -5 -4 -10 -10 -10 -5 0 -10 5 -10 10 0 6 5 10 10 10 6 0 10 -4 10 -10z
m40 -45 c7 -9 10 -18 7 -21 -6 -7 -47 18 -47 28 0 14 27 9 40 -7z m-57 -20
c-5 -13 -23 -22 -23 -11 0 15 14 35 21 31 4 -3 6 -12 2 -20z m-13 -69 c0 -3
-4 -8 -10 -11 -5 -3 -10 -1 -10 4 0 6 5 11 10 11 6 0 10 -2 10 -4z m-75 -86
c3 -5 -1 -10 -9 -10 -9 0 -16 5 -16 10 0 6 4 10 9 10 6 0 13 -4 16 -10z m-335
-430 c0 -5 -4 -10 -10 -10 -5 0 -10 5 -10 10 0 6 5 10 10 10 6 0 10 -4 10 -10z
m-6793 -2026 c-3 -3 -12 -4 -19 -1 -8 3 -5 6 6 6 11 1 17 -2 13 -5z m13 -18
c0 -3 -4 -8 -10 -11 -5 -3 -10 -1 -10 4 0 6 5 11 10 11 6 0 10 -2 10 -4z m94
-385 c-2 -3 -12 3 -22 13 -16 17 -16 18 5 5 12 -7 20 -15 17 -18z m36 -27 c14
-8 17 -13 7 -10 -10 3 -25 6 -33 6 -8 0 -14 5 -14 10 0 14 10 12 40 -6z m60
-30 c0 -2 -9 -4 -21 -4 -11 0 -18 4 -14 10 5 8 35 3 35 -6z m25 -4 c3 -5 1
-10 -4 -10 -6 0 -11 5 -11 10 0 6 2 10 4 10 3 0 8 -4 11 -10z m155 -184 c0 -2
-7 -6 -15 -10 -8 -3 -15 -1 -15 4 0 6 7 10 15 10 8 0 15 -2 15 -4z"/>
<path d="M7945 6970 c-3 -5 3 -10 15 -10 12 0 18 5 15 10 -3 6 -10 10 -15 10
-5 0 -12 -4 -15 -10z"/>
<path d="M8020 6940 c0 -5 5 -10 11 -10 5 0 7 5 4 10 -3 6 -8 10 -11 10 -2 0
-4 -4 -4 -10z"/>
<path d="M7935 6904 c-17 -13 -18 -16 -5 -24 10 -7 11 -10 3 -10 -7 0 -13 -4
-13 -10 0 -17 77 -12 84 6 3 8 2 13 -3 9 -5 -3 -20 -1 -32 4 l-24 8 23 7 c12
4 26 4 32 1 5 -3 15 -3 22 1 8 5 6 10 -8 15 -30 12 -57 10 -79 -7z"/>
<path d="M8050 6885 c0 -15 26 -32 36 -23 2 3 2 13 -2 22 -8 20 -34 21 -34 1z"/>
<path d="M8096 6892 c-3 -6 1 -12 9 -16 8 -3 15 -12 15 -21 0 -8 5 -15 10 -15
6 0 10 6 10 13 0 19 -37 51 -44 39z"/>
<path d="M8186 6864 c-4 -10 -1 -14 6 -12 15 5 23 28 10 28 -5 0 -13 -7 -16
-16z"/>
<path d="M8136 6812 c-16 -19 -16 -20 4 -25 11 -3 20 -1 20 4 0 5 8 9 18 10
13 0 14 2 2 6 -8 3 -18 10 -21 15 -3 5 -13 0 -23 -10z"/>
<path d="M8200 6790 c0 -5 5 -10 10 -10 6 0 10 5 10 10 0 6 -4 10 -10 10 -5 0
-10 -4 -10 -10z"/>
<path d="M8270 6790 c0 -5 5 -10 11 -10 5 0 7 5 4 10 -3 6 -8 10 -11 10 -2 0
-4 -4 -4 -10z"/>
<path d="M8230 6760 c0 -19 3 -21 12 -12 9 9 9 15 0 24 -9 9 -12 7 -12 -12z"/>
<path d="M8260 6735 c-9 -11 -7 -16 9 -25 12 -6 21 -9 22 -8 10 38 -9 59 -31
33z"/>
<path d="M8300 6626 c0 -27 28 -39 63 -28 22 7 26 10 12 11 -11 1 -32 8 -47
15 -23 12 -28 12 -28 2z"/>
<path d="M8400 6610 c0 -5 5 -10 11 -10 5 0 7 5 4 10 -3 6 -8 10 -11 10 -2 0
-4 -4 -4 -10z"/>
<path d="M8320 6574 c0 -4 12 -17 28 -30 22 -20 29 -22 37 -11 6 8 17 17 25
20 8 4 0 4 -17 1 -19 -3 -33 -1 -33 5 0 5 10 12 23 14 12 2 3 5 -20 6 -24 0
-43 -2 -43 -5z"/>
<path d="M8435 6530 c3 -5 15 -10 26 -10 10 0 19 5 19 10 0 6 -12 10 -26 10
-14 0 -23 -4 -19 -10z"/>
<path d="M8467 6478 c27 -6 49 -6 60 1 13 7 2 9 -42 9 l-60 -1 42 -9z"/>
<path d="M8610 6420 c0 -5 5 -10 11 -10 5 0 7 5 4 10 -3 6 -8 10 -11 10 -2 0
-4 -4 -4 -10z"/>
<path d="M8560 6404 l-25 -15 25 7 c28 7 35 12 29 18 -2 2 -15 -2 -29 -10z"/>
<path d="M8575 6371 c-15 -6 -9 -9 26 -12 34 -3 45 -1 42 9 -6 13 -37 15 -68
3z"/>
<path d="M8685 6340 c3 -5 8 -10 11 -10 2 0 4 5 4 10 0 6 -5 10 -11 10 -5 0
-7 -4 -4 -10z"/>
<path d="M8698 6278 c9 -9 15 -9 24 0 9 9 7 12 -12 12 -19 0 -21 -3 -12 -12z"/>
<path d="M8728 6253 c7 -3 16 -2 19 1 4 3 -2 6 -13 5 -11 0 -14 -3 -6 -6z"/>
<path d="M8768 6243 c6 -2 18 -2 25 0 6 3 1 5 -13 5 -14 0 -19 -2 -12 -5z"/>
<path d="M8810 6210 c0 -5 5 -10 10 -10 6 0 10 5 10 10 0 6 -4 10 -10 10 -5 0
-10 -4 -10 -10z"/>
<path d="M8800 6165 c0 -8 5 -15 11 -15 5 0 8 4 5 9 -4 5 7 4 24 -2 18 -7 29
-18 27 -27 -1 -9 7 -16 23 -18 l25 -4 -23 22 c-12 12 -20 25 -17 30 3 4 -5 6
-17 2 -14 -3 -19 -2 -14 6 5 8 -2 12 -18 12 -16 0 -26 -6 -26 -15z"/>
<path d="M8910 6090 c0 -5 14 -10 32 -10 36 0 35 4 -4 14 -17 4 -28 2 -28 -4z"/>
<path d="M9032 6046 c7 -8 15 -12 17 -11 5 6 -10 25 -20 25 -5 0 -4 -6 3 -14z"/>
<path d="M9073 6005 c0 -8 4 -12 9 -9 5 3 6 10 3 15 -9 13 -12 11 -12 -6z"/>
<path d="M9285 5760 c-4 -6 6 -10 22 -10 22 0 25 2 13 10 -19 12 -27 12 -35 0z"/>
<path d="M9725 5280 c-8 -13 15 -13 35 0 12 8 11 10 -7 10 -12 0 -25 -4 -28
-10z"/>
<path d="M9848 5153 c6 -2 18 -2 25 0 6 3 1 5 -13 5 -14 0 -19 -2 -12 -5z"/>
<path d="M10017 4993 c-15 -14 -6 -24 16 -18 35 11 44 25 16 25 -14 0 -29 -3
-32 -7z"/>
<path d="M10163 4878 c-2 -5 2 -8 11 -8 8 0 21 -2 29 -5 8 -4 14 0 14 8 0 15
-45 19 -54 5z"/>
<path d="M3210 3850 c-311 -39 -516 -201 -581 -460 -8 -31 -13 -100 -13 -160
1 -122 30 -226 83 -305 l32 -47 -40 -62 c-22 -33 -52 -87 -67 -120 -23 -50
-26 -68 -22 -127 7 -94 42 -162 123 -238 75 -70 191 -130 310 -163 115 -31
394 -31 506 0 94 25 178 67 247 121 l52 41 45 -35 c65 -49 161 -92 273 -122
87 -24 116 -27 277 -27 208 -1 268 11 404 77 83 40 188 129 238 202 l21 29 47
-52 c245 -272 744 -344 1108 -160 57 28 61 29 70 11 21 -36 64 -71 103 -82 49
-14 404 -14 464 0 67 15 114 51 141 106 20 41 24 67 27 176 l4 127 57 0 c272
1 499 193 557 470 24 114 15 303 -18 397 -49 138 -142 240 -275 304 -116 55
-167 60 -577 57 -361 -3 -372 -4 -406 -25 -19 -12 -45 -35 -58 -52 l-22 -30
-43 29 c-104 70 -249 109 -427 117 -276 11 -499 -63 -682 -226 l-56 -51 -21
34 c-57 92 -198 176 -367 218 -125 31 -401 32 -515 0 -98 -27 -209 -82 -264
-133 -39 -36 -44 -38 -56 -22 -8 9 -47 38 -87 64 -73 48 -181 89 -282 108 -81
15 -236 21 -310 11z m2813 -209 c42 -11 107 -35 144 -53 66 -32 143 -95 143
-115 0 -10 -82 -115 -157 -201 l-28 -33 -90 47 c-82 41 -100 47 -177 51 -238
15 -358 -101 -358 -346 0 -217 94 -334 282 -348 42 -3 98 0 131 7 l58 12 -7
81 c-3 45 -9 85 -13 89 -3 4 -49 8 -101 10 l-95 3 -3 133 -3 132 285 0 284 0
6 -72 c3 -40 12 -167 20 -283 l14 -210 -45 -43 c-110 -104 -319 -172 -529
-172 -281 0 -487 119 -603 349 -93 183 -96 432 -7 616 98 205 256 322 494 365
76 14 268 4 355 -19z m-2512 5 c70 -15 181 -63 215 -93 31 -28 46 -61 38 -86
-5 -17 -106 -169 -130 -196 -2 -2 -34 10 -71 27 -38 17 -86 35 -108 41 -55 15
-184 14 -215 -2 -36 -18 -53 -59 -39 -91 15 -31 57 -49 201 -81 219 -49 298
-88 363 -179 47 -67 58 -118 53 -243 -4 -81 -11 -120 -27 -158 -50 -112 -143
-188 -278 -227 -66 -19 -100 -23 -223 -22 -161 1 -238 15 -344 63 -81 36 -152
101 -167 151 -11 37 -10 40 47 124 33 47 64 87 71 90 7 3 38 -10 69 -29 75
-45 142 -70 232 -85 141 -23 232 10 232 85 0 60 -36 81 -197 115 -310 65 -421
165 -424 382 -2 132 23 204 96 286 88 97 215 141 415 141 70 0 154 -5 191 -13z
m1184 -11 c134 -37 245 -109 245 -159 0 -24 -125 -216 -140 -216 -6 0 -32 11
-58 24 -77 39 -161 59 -249 60 -68 1 -86 -2 -110 -20 -31 -23 -38 -43 -29 -80
9 -34 50 -51 197 -84 292 -66 393 -148 421 -339 28 -190 -56 -357 -216 -432
-104 -48 -189 -62 -356 -56 -154 6 -230 22 -317 64 -78 39 -153 118 -153 164
0 16 123 199 134 199 5 0 30 -13 56 -29 114 -70 307 -110 394 -81 66 22 92 71
65 122 -15 27 -58 44 -211 78 -156 35 -240 72 -307 135 -172 161 -129 496 78
608 96 53 179 68 346 63 97 -3 171 -10 210 -21z m2570 -38 c164 -54 245 -182
245 -387 0 -138 -38 -246 -114 -324 -88 -91 -161 -117 -361 -125 l-150 -6 -3
-189 c-1 -121 -6 -194 -14 -203 -8 -11 -51 -13 -197 -11 l-186 3 0 630 0 629
23 6 c12 3 177 2 365 -1 281 -4 351 -8 392 -22z"/>
<path d="M6890 3185 l0 -145 68 0 c118 0 172 49 172 155 0 99 -45 135 -167
135 l-73 0 0 -145z"/>
<path d="M4282 1948 c-26 -13 -38 -48 -24 -75 8 -14 5 -24 -9 -42 -25 -31 -25
-77 0 -91 27 -14 84 -13 99 2 9 9 15 9 24 0 14 -14 58 -16 58 -3 0 5 -9 13
-20 16 -24 8 -25 14 -5 51 18 36 0 47 -24 15 l-17 -22 -22 24 -22 23 25 24
c31 29 32 54 3 74 -26 18 -34 19 -66 4z m46 -40 c-4 -29 -38 -38 -38 -10 0 22
8 32 27 32 9 0 13 -8 11 -22z m-10 -107 c23 -32 20 -41 -13 -41 -34 0 -49 23
-33 49 17 27 20 27 46 -8z"/>
<path d="M3177 1939 c-44 -26 -60 -114 -32 -169 19 -37 77 -56 131 -43 l39 9
3 57 3 57 -30 0 c-16 0 -36 3 -45 6 -12 4 -16 0 -16 -16 0 -19 4 -21 25 -16
24 6 25 4 25 -34 0 -38 -2 -40 -30 -40 -70 0 -109 101 -59 151 18 18 30 21 71
17 41 -4 48 -3 46 11 -4 19 -102 27 -131 10z"/>
<path d="M3378 1888 c-2 -35 -2 -84 0 -110 l4 -48 59 0 c46 0 59 3 59 15 0 11
-11 15 -40 15 l-39 0 -3 92 c-2 76 -6 93 -19 96 -14 2 -17 -8 -21 -60z"/>
<path d="M3560 1853 c-18 -54 -35 -104 -38 -110 -2 -8 4 -13 17 -13 14 0 23 8
27 25 5 22 12 25 50 25 38 0 44 -3 50 -25 4 -18 13 -25 31 -25 20 0 24 4 18
18 -4 9 -22 58 -40 107 -28 78 -36 90 -58 93 -23 3 -27 -3 -57 -95z m80 -25
c0 -13 -8 -18 -25 -18 -28 0 -31 11 -13 61 l12 34 12 -30 c7 -17 13 -38 14
-47z"/>
<path d="M3782 1934 c-27 -19 -29 -64 -4 -86 9 -9 32 -23 50 -32 60 -30 30
-76 -38 -58 -42 10 -54 5 -41 -17 5 -8 29 -14 59 -14 64 -1 94 22 90 67 -2 26
-12 35 -51 56 -35 19 -47 30 -45 45 3 17 10 20 51 18 33 -1 47 3 47 12 0 27
-83 33 -118 9z"/>
<path d="M3972 1934 c-27 -19 -29 -64 -4 -86 9 -9 32 -23 50 -32 38 -20 41
-42 7 -58 -18 -8 -31 -8 -49 0 -25 11 -36 7 -36 -15 0 -23 106 -17 130 7 37
37 22 77 -39 104 -22 10 -42 24 -45 32 -8 21 21 37 59 31 25 -4 35 -2 35 8 0
28 -72 34 -108 9z"/>
<path d="M4564 1936 c-3 -8 3 -56 13 -108 18 -88 20 -93 45 -96 24 -3 28 1 33
35 4 21 10 52 14 68 l8 30 7 -40 c16 -94 17 -95 41 -95 21 0 25 8 45 98 12 53
24 100 27 105 7 13 -29 21 -37 8 -4 -7 -13 -45 -20 -84 l-14 -72 -7 40 c-4 22
-10 57 -14 78 -5 32 -10 38 -28 35 -19 -3 -24 -14 -38 -78 l-16 -75 -13 77
c-12 73 -33 107 -46 74z"/>
<path d="M4878 1933 c-54 -34 -66 -120 -23 -171 62 -74 185 -28 185 69 0 51
-18 87 -51 105 -37 18 -78 17 -111 -3z m96 -28 c57 -57 8 -177 -60 -147 -45
21 -58 92 -23 136 23 29 59 34 83 11z"/>
<path d="M5144 1941 c-12 -5 -29 -20 -38 -33 -21 -29 -21 -116 -1 -145 40 -57
145 -47 178 17 24 46 17 105 -16 137 -26 27 -88 39 -123 24z m90 -43 c23 -33
21 -103 -4 -128 -46 -46 -100 -6 -100 72 0 46 24 78 60 78 18 0 34 -8 44 -22z"/>
<path d="M5373 1943 c-22 -4 -23 -8 -23 -109 l0 -104 61 0 c54 0 64 3 90 29
24 24 29 38 29 76 0 38 -5 52 -29 76 -17 16 -40 29 -54 29 -14 0 -31 2 -39 4
-7 2 -23 1 -35 -1z m92 -48 c50 -49 24 -135 -41 -135 l-34 0 0 80 c0 79 0 80
25 80 14 0 37 -11 50 -25z"/>
<path d="M5668 1944 c-5 -4 -8 -54 -8 -111 l0 -103 25 0 c23 0 25 4 25 40 0
39 1 40 35 40 64 0 101 74 57 113 -19 18 -122 34 -134 21z m87 -34 c21 -8 26
-16 23 -38 -3 -23 -8 -27 -40 -30 -37 -3 -38 -2 -38 31 0 49 9 55 55 37z"/>
<path d="M6475 1941 c-39 -16 -59 -49 -59 -100 -2 -87 62 -137 140 -111 41 14
64 53 64 110 0 54 -14 79 -55 96 -38 16 -60 17 -90 5z m85 -41 c44 -44 16
-150 -40 -150 -36 0 -60 35 -60 87 0 76 54 109 100 63z"/>
<path d="M6721 1936 c-62 -35 -70 -150 -12 -193 44 -32 127 -17 151 27 18 33
16 105 -4 135 -28 43 -88 57 -135 31z m89 -36 c42 -42 16 -150 -35 -150 -27 0
-65 47 -65 80 0 76 55 115 100 70z"/>
<path d="M6953 1943 c-22 -4 -23 -9 -23 -109 l0 -104 59 0 c48 0 65 5 86 23
49 41 41 147 -13 176 -23 12 -82 20 -109 14z m65 -29 c12 -4 29 -19 37 -35 32
-61 7 -119 -51 -119 l-34 0 0 80 c0 84 1 86 48 74z"/>
<path d="M5860 1835 l0 -105 60 0 c47 0 60 3 60 15 0 11 -11 15 -40 15 l-40 0
0 90 c0 83 -1 90 -20 90 -19 0 -20 -7 -20 -105z"/>
<path d="M6016 1878 c23 -43 34 -77 34 -105 0 -36 3 -43 20 -43 17 0 20 7 20
53 0 39 8 66 30 105 28 52 28 53 7 50 -14 -2 -29 -17 -41 -41 l-18 -39 -21 41
c-15 29 -27 41 -43 41 -21 0 -21 -2 12 -62z"/>
<path d="M6173 1918 c3 -13 14 -60 24 -105 16 -73 20 -83 40 -83 20 0 23 7 29
60 4 33 10 63 15 65 4 3 11 -24 14 -60 7 -60 9 -65 31 -65 13 0 24 2 24 5 0 3
9 48 21 101 11 53 18 98 15 101 -15 15 -34 -11 -41 -53 -13 -89 -22 -95 -30
-16 -7 66 -10 72 -30 72 -20 0 -24 -8 -37 -72 l-14 -73 -13 73 c-11 61 -16 72
-33 72 -16 0 -19 -5 -15 -22z"/>
<path d="M2970 1555 c7 -8 17 -15 22 -15 6 0 5 7 -2 15 -7 8 -17 15 -22 15 -6
0 -5 -7 2 -15z"/>
<path d="M3008 1503 c6 -2 18 -2 25 0 6 3 1 5 -13 5 -14 0 -19 -2 -12 -5z"/>
<path d="M3250 1260 c0 -5 5 -10 11 -10 5 0 7 5 4 10 -3 6 -8 10 -11 10 -2 0
-4 -4 -4 -10z"/>
<path d="M4130 290 c0 -5 5 -10 11 -10 5 0 7 5 4 10 -3 6 -8 10 -11 10 -2 0
-4 -4 -4 -10z"/>
</g>
</svg>
